<svg version="1.0"
    xmlns="http://www.w3.org/2000/svg"
    width="1200.000000pt" height="208.000000pt"
    viewBox="0 0 1200.000000 208.000000"
    preserveAspectRatio="xMidYMid meet">
    <g transform="translate(0.000000,208.000000) scale(0.100000,-0.100000)"
        fill="#000000"
        stroke="none">
    <path d="M9548 1694 c-9 -3 -19 -12 -22 -21 -4 -8 -6 -274 -6 -591 0 -506 2
    -578 15 -592 22 -21 323 -22 348 -1 15 12 17 38 17 197 l0 184 128 0 c180 0
    170 11 174 -200 2 -122 7 -173 16 -182 10 -10 56 -13 178 -13 152 0 167 2 180
    19 18 25 20 413 3 481 -16 62 -78 130 -139 152 l-48 17 24 19 c43 33 57 75 62
    183 8 176 -40 277 -153 324 -59 24 -63 24 -410 26 -192 2 -357 0 -367 -2z
    m532 -324 c16 -16 20 -33 20 -88 0 -93 -14 -106 -121 -111 l-79 -3 0 111 0
    111 80 0 c67 0 83 -3 100 -20z"/>
    <path d="M10812 1684 c-21 -14 -22 -22 -22 -154 0 -166 -5 -160 134 -160 l96
    0 0 -285 0 -285 -99 0 c-136 0 -132 4 -129 -168 3 -134 3 -137 28 -149 36 -18
    744 -18 780 0 25 12 25 15 28 149 3 171 6 168 -124 168 l-94 0 0 285 0 285 91
    0 c134 0 129 -6 129 160 0 132 -1 140 -22 154 -19 14 -74 16 -398 16 -324 0
    -379 -2 -398 -16z"/>
    <path d="M262 1678 c-17 -17 -17 -1179 0 -1196 15 -15 325 -17 348 -2 12 8 16
    47 20 217 l5 208 140 0 140 0 3 -204 c1 -130 6 -209 13 -218 9 -10 52 -13 180
    -13 156 0 169 1 179 19 6 13 10 217 10 595 0 509 -2 576 -16 590 -13 13 -43
    16 -173 16 -110 0 -162 -4 -174 -12 -15 -11 -17 -39 -19 -213 l-3 -200 -142
    -3 -143 -3 0 200 c0 168 -2 202 -16 215 -13 13 -44 16 -178 16 -113 0 -166 -4
    -174 -12z"/>
    <path d="M1842 1670 c-129 -34 -191 -78 -236 -168 -15 -29 -16 -78 -14 -455
    l3 -422 33 -47 c60 -87 172 -132 366 -150 87 -8 150 -8 232 1 210 21 315 72
    369 176 l30 59 3 374 c2 309 0 383 -12 425 -29 99 -95 159 -215 199 -57 18
    -94 22 -276 25 -184 2 -219 0 -283 -17z m328 -309 c79 -16 80 -18 80 -302 0
    -248 0 -248 -24 -276 -23 -27 -27 -28 -121 -28 -94 0 -98 1 -121 28 -24 28
    -24 28 -24 276 0 227 2 251 18 272 27 32 111 45 192 30z"/>
    <path d="M2899 1673 c-12 -13 -14 -119 -14 -593 0 -474 2 -580 14 -593 11 -15
    36 -17 170 -17 86 0 163 5 171 10 13 8 16 59 20 325 l5 316 50 -93 c70 -132
    77 -138 168 -138 94 0 100 5 172 135 l55 100 0 -312 c0 -270 2 -314 16 -327
    13 -13 44 -16 178 -16 113 0 166 4 174 12 9 9 12 156 12 600 0 570 -1 588 -19
    598 -11 6 -89 10 -181 10 l-162 0 -26 -27 c-15 -16 -63 -94 -107 -175 -43 -81
    -85 -150 -92 -152 -27 -11 -42 9 -124 157 -46 84 -94 162 -106 175 -21 21 -29
    22 -191 22 -146 0 -171 -2 -183 -17z"/>
    <path d="M4376 1668 c-14 -20 -16 -92 -16 -588 0 -496 2 -568 16 -588 15 -21
    21 -22 172 -22 86 0 164 5 172 10 13 8 16 59 20 322 l5 313 53 -97 c29 -54 63
    -105 75 -113 14 -10 45 -15 95 -15 89 0 96 6 167 140 l50 94 3 -314 c1 -211 6
    -318 13 -327 15 -18 339 -19 357 -1 9 9 12 155 12 594 0 516 -2 584 -16 598
    -13 13 -44 16 -184 16 l-168 0 -25 -29 c-13 -16 -59 -92 -100 -169 -81 -147
    -95 -166 -120 -156 -9 3 -54 76 -102 162 -47 86 -95 165 -107 175 -17 15 -43
    17 -189 17 -162 0 -168 -1 -183 -22z"/>
    <path d="M6056 1667 c-23 -23 -36 -55 -147 -348 -90 -240 -89 -234 -89 -549 0
    -201 3 -279 12 -288 15 -15 315 -17 338 -2 12 7 16 38 18 150 l4 140 149 0
    149 0 0 -134 c0 -109 3 -138 16 -150 13 -13 44 -16 178 -16 113 0 166 4 174
    12 9 9 12 87 12 289 0 263 -1 281 -24 360 -42 144 -193 522 -217 542 -19 15
    -49 17 -286 17 -262 0 -264 0 -287 -23z m329 -316 c3 -6 20 -58 39 -118 18
    -59 36 -118 40 -130 l7 -23 -130 0 c-72 0 -131 4 -131 8 0 13 71 235 81 255
    11 19 83 25 94 8z"/>
    <path d="M6996 1674 c-24 -23 -23 -275 1 -295 11 -10 56 -15 155 -17 l138 -4
    0 -428 c0 -376 2 -430 16 -444 23 -24 345 -24 368 0 14 14 16 68 16 445 l0
    429 133 0 c184 0 177 -6 177 165 0 108 -3 137 -16 149 -14 14 -72 16 -494 16
    -422 0 -480 -2 -494 -16z"/>
    <path d="M8612 1675 c-30 -7 -91 -31 -137 -54 -137 -68 -243 -188 -297 -337
    -29 -81 -36 -245 -15 -334 21 -85 317 -675 370 -735 105 -121 282 -130 390
    -19 21 21 50 62 64 89 14 28 86 157 160 289 157 278 168 299 188 395 28 136
    12 262 -51 390 -46 94 -161 212 -251 259 -125 65 -294 88 -421 57z m310 -212
    c88 -41 160 -113 201 -201 30 -62 32 -75 32 -172 0 -97 -2 -110 -31 -170 -72
    -153 -206 -240 -369 -241 -123 -1 -204 31 -293 115 -166 157 -173 409 -14 578
    90 96 172 129 312 125 83 -2 104 -7 162 -34z"/>
    <path d="M8694 1210 c-31 -12 -72 -66 -80 -104 -16 -88 80 -170 169 -145 109
    30 130 181 34 239 -33 21 -87 25 -123 10z"/>
    </g>
</svg>